<?xml version="1.0" standalone="no"?><!DOCTYPE svg PUBLIC "-//W3C//DTD SVG 1.1//EN" "http://www.w3.org/Graphics/SVG/1.1/DTD/svg11.dtd"><svg t="1700014191944" class="icon" viewBox="0 0 1024 1024" version="1.1" xmlns="http://www.w3.org/2000/svg" p-id="7492" xmlns:xlink="http://www.w3.org/1999/xlink" width="200" height="200"><path d="M325.248 226.261333a42.666667 42.666667 0 1 1 46.762667 71.381334 256 256 0 1 0 284.544 3.029333 42.666667 42.666667 0 1 1 48.213333-70.4 341.333333 341.333333 0 1 1-379.52-4.053333z" fill="#000000" p-id="7493"></path><path d="M469.333333 128m42.666667 0l0 0q42.666667 0 42.666667 42.666667l0 341.333333q0 42.666667-42.666667 42.666667l0 0q-42.666667 0-42.666667-42.666667l0-341.333333q0-42.666667 42.666667-42.666667Z" fill="#000000" opacity=".3" p-id="7494"></path></svg>